<?xml version="1.0" ?><!DOCTYPE svg  PUBLIC '-//W3C//DTD SVG 1.1//EN'  'http://www.w3.org/Graphics/SVG/1.1/DTD/svg11.dtd'><svg enable-background="new 0 0 500 500" height="500px" id="Layer_1" version="1.1" viewBox="0 0 500 500" width="500px" xml:space="preserve" xmlns="http://www.w3.org/2000/svg" xmlns:xlink="http://www.w3.org/1999/xlink"><g><g><path d="M323.771,180.378c-7.091,9.689-20.445,11.608-29.828,4.287c-9.383-7.322-11.242-21.112-4.151-30.801     c7.091-9.689,20.445-11.608,29.828-4.287C329.003,156.898,330.861,170.688,323.771,180.378z"/><g><path d="M214.461,253.595l-18.921,25.855l-38.213-11.393c-5.718-1.705-11.691,1.7-13.342,7.604l-0.448,1.602      c-1.651,5.904,1.646,12.073,7.364,13.777l53.488,15.998l21.58-29.488L214.461,253.595z"/></g><g><path d="M349.781,252.237l-26.867-7.241l-13.017-27.098l-15.612,21.334l10.48,21.816l0.009-0.005      c1.358,2.691,3.769,4.803,6.837,5.629l32.32,8.711c5.758,1.552,11.645-2.01,13.148-7.956l0.408-1.614      C358.989,259.868,355.539,253.79,349.781,252.237z"/></g><path d="M268.952,179.133l-41.519-8.146c0,0-9.699,13.254-12.099,16.533l-20.138,27.518c-3.588,4.903-2.647,11.881,2.101,15.586     l1.289,1.006c1.944,1.517,4.226,2.25,6.488,2.25c3.263,0,6.487-1.524,8.605-4.419l23.563-32.199l16.127,3.164l-31.544,43.104     l29.318,61.031l-25.541,34.901c-3.588,4.903-2.647,11.881,2.101,15.586l1.289,1.006c1.944,1.517,4.226,2.25,6.488,2.25     c3.263,0,6.487-1.524,8.605-4.419l28.584-39.059c1.297-1.772,5.594-7.644,5.594-7.644l-18.627-38.777l45.006-61.499     l-35.655-27.822L268.952,179.133z"/></g></g></svg>