<svg width="24" height="24" viewBox="0 0 24 24" fill="none" xmlns="http://www.w3.org/2000/svg">
<rect width="24" height="24" rx="12" fill="#8C8C8C"/>
<g clip-path="url(#clip0_4901_15742)">
<path d="M5.52629 18.0027C5.48821 18.1348 5.52629 18.2795 5.6227 18.376C5.69381 18.447 5.79289 18.4877 5.89188 18.4877C5.92739 18.4877 5.96299 18.4826 5.99602 18.4724L9.54555 17.4593L6.53934 14.4531L5.52629 18.0027Z" fill="white"/>
<path d="M5.89176 18.4998C5.78762 18.4998 5.68864 18.4592 5.61505 18.3856C5.51348 18.284 5.4754 18.1367 5.51596 17.9996L6.53665 14.4297L9.5734 17.4664L5.99838 18.4846C5.96288 18.4948 5.92727 18.4998 5.89176 18.4998ZM6.54686 14.4754L5.53887 18.0047C5.50327 18.1342 5.53887 18.2713 5.6328 18.3652C5.70133 18.4338 5.79526 18.4719 5.89176 18.4719C5.92479 18.4719 5.9603 18.4668 5.99333 18.4567L9.52262 17.4487L6.54686 14.4754Z" fill="white"/>
<path d="M18.1531 7.46014L16.5408 5.84783C16.3225 5.63201 16.0381 5.5127 15.7309 5.5127C15.4262 5.5127 15.1392 5.63201 14.9234 5.84535L14.116 6.65269L17.3432 9.87988L18.1506 9.07244C18.3664 8.85662 18.4832 8.56969 18.4832 8.265C18.4857 7.96031 18.3664 7.67596 18.1531 7.46014Z" fill="white"/>
<path d="M17.3455 9.89764L14.1006 6.65269L14.9156 5.83772C15.134 5.61932 15.4234 5.5 15.7306 5.5C16.0404 5.5 16.3299 5.61932 16.5457 5.83772L18.158 7.45002C18.3763 7.66832 18.4956 7.95783 18.4956 8.265C18.4956 8.57484 18.3763 8.86426 18.158 9.08008L17.3455 9.89764ZM14.1361 6.65269L17.3455 9.86213L18.1428 9.0648C18.356 8.85156 18.4728 8.56969 18.4728 8.26758C18.4728 7.96547 18.356 7.68359 18.1428 7.47035L16.5304 5.85547C16.3172 5.64223 16.0328 5.52539 15.7306 5.52539C15.4285 5.52539 15.1467 5.64223 14.9334 5.85547L14.1361 6.65269Z" fill="white"/>
<path d="M6.96777 13.8028L13.58 7.19043L16.8081 10.4185L10.1959 17.0309L6.96777 13.8028Z" fill="white"/>
<path d="M10.1957 17.0498L6.94824 13.8024L13.5803 7.17285L16.8252 10.4178L10.1957 17.0498ZM6.98633 13.8024L10.1957 17.0117L16.7896 10.4178L13.5803 7.20846L6.98633 13.8024Z" fill="white"/>
</g>
<defs>
<clipPath id="clip0_4901_15742">
<rect width="13" height="13" fill="white" transform="translate(5.5 5.5)"/>
</clipPath>
</defs>
</svg>
