<svg width="24" height="24" viewBox="0 0 24 24" fill="none" xmlns="http://www.w3.org/2000/svg">
<rect width="24" height="24" rx="12" fill="#8C8C8C"/>
<path d="M13.9381 7.19841C13.6371 7.19841 13.3668 7.12699 13.127 6.98416C12.8873 6.83623 12.6934 6.64238 12.5455 6.40263C12.4027 6.16288 12.3313 5.89507 12.3313 5.5992C12.3313 5.30334 12.4027 5.03553 12.5455 4.79578C12.6934 4.55092 12.8873 4.35708 13.127 4.21425C13.3668 4.07142 13.6371 4 13.9381 4C14.234 4 14.5018 4.07142 14.7415 4.21425C14.9813 4.35708 15.1726 4.55092 15.3154 4.79578C15.4634 5.03553 15.5373 5.30334 15.5373 5.5992C15.5373 5.89507 15.4634 6.16288 15.3154 6.40263C15.1726 6.64238 14.9813 6.83623 14.7415 6.98416C14.5018 7.12699 14.234 7.19841 13.9381 7.19841ZM11.436 13.5417C11.2269 13.4243 11.0152 13.2968 10.8009 13.1591C10.5867 13.0162 10.4285 12.8275 10.3265 12.5928C10.2245 12.3531 10.2347 12.0266 10.3571 11.6134L10.9387 9.51687C10.9795 9.38424 10.9591 9.28222 10.8774 9.2108C10.7958 9.13938 10.6989 9.10878 10.5867 9.11898L9.569 9.18784L9.26293 11.2997C9.19662 11.7741 8.94921 11.9935 8.52072 11.9578C8.31667 11.9374 8.16109 11.8532 8.05397 11.7053C7.94684 11.5522 7.90858 11.3609 7.93919 11.1314L8.29117 8.53745C8.31667 8.3232 8.39574 8.15232 8.52837 8.02479C8.661 7.89726 8.83189 7.82584 9.04103 7.81054L11.5967 7.63455C12.27 7.58354 12.8261 7.65496 13.2648 7.8488C13.7035 8.03754 14.0886 8.35891 14.4202 8.81291L15.675 10.5498L17.4961 9.73877C17.7002 9.64695 17.8864 9.62654 18.0547 9.67755C18.2282 9.72856 18.3582 9.84844 18.445 10.0372C18.5368 10.2259 18.547 10.4045 18.4756 10.5728C18.4042 10.7411 18.2639 10.8712 18.0547 10.963L15.7439 11.996C15.5909 12.0674 15.4327 12.0802 15.2695 12.0343C15.1114 11.9884 14.9864 11.894 14.8946 11.7512L14.0835 10.5805C14.007 10.4682 13.9101 10.4198 13.7927 10.4351C13.6754 10.4504 13.5989 10.5243 13.5632 10.657L13.0199 12.524L15.7516 14.3145C15.9607 14.4522 16.078 14.6512 16.1035 14.9113C16.129 15.1715 16.0525 15.3755 15.874 15.5234L13.3642 17.6583C13.1602 17.8317 12.9561 17.9108 12.7521 17.8955C12.5532 17.8853 12.3925 17.8113 12.27 17.6736C12.1527 17.5358 12.0992 17.3701 12.1094 17.1762C12.1196 16.9773 12.2241 16.7962 12.4231 16.6329L14.1983 15.0949L11.436 13.5417ZM6.55423 19.8313C6.4063 19.6987 6.32213 19.5253 6.30173 19.311C6.28643 19.0968 6.37569 18.8953 6.56954 18.7065L9.01808 16.2733L9.87507 13.2279C10.0077 13.4014 10.1735 13.5646 10.3724 13.7176C10.5714 13.8656 10.8086 14.0161 11.084 14.1691L11.3365 14.3145L10.3571 16.8395C10.2959 16.9926 10.2449 17.0997 10.2041 17.1609C10.1633 17.217 10.0919 17.2961 9.98984 17.3981L7.62547 19.7319C7.44183 19.9104 7.25309 19.9997 7.05925 19.9997C6.8654 20.0048 6.69707 19.9487 6.55423 19.8313Z" fill="white"/>
</svg>
