<svg width="24" height="24" viewBox="0 0 24 24" fill="none" xmlns="http://www.w3.org/2000/svg">
<rect width="24" height="24" rx="12" fill="#8C8C8C"/>
<path d="M12.0001 19C11.9041 19 11.7875 18.9657 11.6504 18.8972C11.5133 18.8332 11.383 18.76 11.2596 18.6777C9.98883 17.855 8.88264 16.991 7.94101 16.086C7.00395 15.1763 6.27716 14.2416 5.76063 13.2816C5.2441 12.3172 4.98584 11.3458 4.98584 10.3676C4.98584 9.71853 5.08869 9.12658 5.29438 8.59177C5.50465 8.05696 5.79263 7.59529 6.15831 7.20675C6.52856 6.81821 6.95367 6.5211 7.43362 6.3154C7.91815 6.10513 8.43925 6 8.99692 6C9.68714 6 10.2837 6.1737 10.7865 6.5211C11.2939 6.8685 11.6984 7.32103 12.0001 7.87869C12.3063 7.31646 12.7109 6.86392 13.2137 6.5211C13.7211 6.1737 14.3199 6 15.0101 6C15.5586 6 16.0752 6.10513 16.5597 6.3154C17.0488 6.5211 17.4762 6.81821 17.8419 7.20675C18.2075 7.59529 18.4932 8.05696 18.6989 8.59177C18.9092 9.12658 19.0143 9.71853 19.0143 10.3676C19.0143 11.3458 18.7561 12.3172 18.2395 13.2816C17.723 14.2416 16.9939 15.1763 16.0523 16.086C15.1152 16.991 14.0136 17.855 12.7474 18.6777C12.6195 18.76 12.4869 18.8332 12.3498 18.8972C12.2172 18.9657 12.1006 19 12.0001 19Z" fill="white"/>
</svg>
